# xmcd
#
# Track frame offsets: 
#        150
#        22800
#        48962
#        71850
#        93637
#        114200
#        136225
#        156050
#        174675
#
# Disc length: 2601 seconds
#
# Revision: 4
# Processed by: cddbd v1.5.2PL0 Copyright (c) Steve Scherf et al.
# Submitted via: ExactAudioCopy v0.99pb5
#
DISCID=6f0a2709
DTITLE=Chinmaya Dunster and Vidroha Jamie - Celtic Ragas
DYEAR=1998
DGENRE=New Age
TTITLE0=Chance Meeting
TTITLE1=The Mist of Ruantallain
TTITLE2=At the Edge of the Known World
TTITLE3=Mere Hamsafar
TTITLE4=Tara
TTITLE5=The Goddess
TTITLE6=Wandering Way
TTITLE7=A Gypsy Tale
TTITLE8=Dorset
EXTD=
EXTT0=
EXTT1=
EXTT2=
EXTT3=
EXTT4=
EXTT5=
EXTT6=
EXTT7=
EXTT8=
PLAYORDER=
